<svg width="175" height="149" viewBox="0 0 175 149" fill="none" xmlns="http://www.w3.org/2000/svg">
<path d="M110.705 84.4694C110.705 84.4609 110.705 84.4609 110.705 84.4523C110.697 84.3246 110.688 84.2054 110.688 84.1033C110.663 83.8649 110.671 83.7286 110.671 83.7286V83.7031C110.697 82.5026 112.562 80.7742 115.133 80.1442C115.141 80.1442 115.15 80.1356 115.158 80.1356C115.371 80.0846 115.584 80.042 115.805 80.0079C116.223 79.9398 116.657 79.9058 117.1 79.9058C117.542 79.9058 117.977 79.9398 118.394 80.0079C118.658 80.0505 118.905 80.1016 119.152 80.1697C119.194 80.1782 119.228 80.1867 119.271 80.1952C121.731 80.8679 123.502 82.5366 123.528 83.7031V83.7286C123.528 83.7286 123.536 83.8649 123.511 84.1033C123.511 84.2054 123.502 84.3246 123.494 84.4523C123.494 84.4609 123.494 84.4609 123.494 84.4694C123.519 84.6311 123.528 84.8014 123.528 84.9717C123.528 84.9717 123.732 92.1151 118.751 95.6315C118.368 96.0231 117.772 96.2786 117.1 96.2786C116.427 96.2786 115.831 96.0231 115.448 95.6315C110.467 92.1151 110.671 84.9717 110.671 84.9717C110.671 84.8014 110.68 84.6311 110.705 84.4694Z" fill="#1E0540"/>
<path d="M148.5 104.41C148.789 106.104 148.934 107.849 148.934 109.629C148.934 121.063 142.804 131.068 133.66 136.534C129.462 139.045 124.626 140.603 119.458 140.901C118.845 140.944 118.223 140.961 117.602 140.961C117.432 140.961 117.27 140.961 117.1 140.953C116.929 140.961 116.768 140.961 116.597 140.961C115.976 140.961 115.354 140.944 114.741 140.901C109.573 140.603 104.737 139.045 100.539 136.534C91.3952 131.068 85.265 121.063 85.265 109.629C85.265 107.849 85.4098 106.104 85.6992 104.41C87.4532 103.831 89.3263 103.516 91.276 103.516C96.8528 103.516 101.834 106.078 105.095 110.097C108.253 107.202 112.476 105.44 117.1 105.44C121.723 105.44 125.946 107.202 129.105 110.097C132.366 106.078 137.346 103.516 142.923 103.516C144.873 103.516 146.746 103.831 148.5 104.41Z" fill="#1E0540"/>
<path d="M105 63.6136C100.432 81.9009 86.2523 96.3739 68.1339 101.373C66.9489 104.656 63.8025 107 60.1086 107C57.1583 107 54.5595 105.513 53.023 103.243C52.7942 103.243 52.5654 103.235 52.3284 103.227C50.7674 104.925 48.5282 105.995 46.0356 105.995C42.4969 105.995 39.4567 103.839 38.1655 100.776C38.002 100.401 37.8713 100.017 37.7732 99.6165C37.3809 99.8533 36.9723 100.058 36.5473 100.229C35.5585 100.629 34.4797 100.85 33.3437 100.85C29.3719 100.85 26.0293 98.13 25.0732 94.4627C25.0159 94.234 24.9669 93.9972 24.9261 93.7603C24.6891 93.8011 24.4521 93.842 24.2151 93.8746C23.88 93.9073 23.5367 93.9318 23.1935 93.9318C18.478 93.9318 14.6532 90.1175 14.6532 85.4048V85.3967H14.7268C14.7023 85.3722 14.6778 85.3477 14.6532 85.315V85.3967C10.1666 85.1435 6.59518 81.419 6.59518 76.8697C6.59518 76.2979 6.6524 75.7344 6.75864 75.1953C4.65832 73.6435 3.29351 71.1523 3.29351 68.3427C3.29351 67.3871 3.44879 66.4641 3.743 65.6065C3.77569 65.6229 3.80837 65.6474 3.84923 65.6719C3.82471 65.6065 3.80837 65.5412 3.79203 65.4677C3.77568 65.5167 3.75934 65.5575 3.743 65.6065C1.47922 64.0629 0 61.4737 0 58.5415C0 56.5813 0.661965 54.7681 1.78159 53.3306C1.78159 53.3224 1.78977 53.3224 1.78977 53.3224C1.78977 53.3224 1.78159 53.3224 1.78159 53.3143C0.661965 51.8768 0 50.0799 0 48.1115C0 45.7919 0.923491 43.6847 2.42723 42.1491C2.4354 42.1655 2.4354 42.1818 2.44358 42.19C2.44358 42.1655 2.45174 42.141 2.45174 42.1246C2.44357 42.1328 2.4354 42.141 2.42723 42.1491C1.97774 41.1119 1.72439 39.9602 1.72439 38.7596C1.72439 35.8928 3.13824 33.3608 5.30394 31.8171C5.36115 31.7681 5.42653 31.7273 5.49191 31.6783C5.46739 31.6129 5.45104 31.5476 5.43469 31.4741C5.27124 30.8125 5.18135 30.1183 5.18135 29.4077C5.18135 26.3857 6.75863 23.723 9.13682 22.2038C9.48007 18.5611 12.2751 15.6289 15.8546 15.0898C16.2387 15.0327 16.6392 15 17.0478 15C18.4126 15 19.6957 15.343 20.8153 15.9393C20.9297 16.0128 21.0523 16.0781 21.1749 16.1516L105 63.6136Z" fill="#722BE2"/>
<path d="M2.85608 51.4512C2.85608 51.46 2.86489 51.46 2.86489 51.46C2.86489 51.46 2.85608 51.46 2.85608 51.4688C2.85608 51.4688 2.85608 51.46 2.85608 51.4512Z" fill="#722BE2"/>
<path d="M6.66197 28.6843C6.679 28.761 6.69604 28.8291 6.72158 28.8972C6.65347 28.9483 6.58536 28.9908 6.52576 29.0419C6.56833 28.9227 6.6194 28.8035 6.66197 28.6843Z" fill="#722BE2"/>
<path d="M26.9683 93.6135C27.0108 93.8604 27.0619 94.1073 27.1215 94.3457C26.8235 94.1499 26.5255 93.9456 26.2275 93.7327C26.4745 93.6987 26.7214 93.6561 26.9683 93.6135Z" fill="#722BE2"/>
<path d="M40.7612 100.928C40.1908 100.749 39.6289 100.561 39.0754 100.357C39.5182 100.178 39.9439 99.9654 40.3526 99.7185C40.4547 100.136 40.591 100.536 40.7612 100.928Z" fill="#722BE2"/>
<path d="M145.35 90.8549C145.35 90.8549 145.358 90.8208 145.375 90.7783C144.72 90.8294 144.064 90.8549 143.392 90.8549C134.588 90.8549 126.797 86.5297 122.046 79.8801C121.927 79.7013 121.8 79.531 121.663 79.3692C120.582 78.0581 118.947 77.2152 117.1 77.2152V54.2268H117.023V77.2152C115.176 77.2152 113.541 78.0581 112.459 79.3692C112.323 79.531 112.196 79.7013 112.076 79.8801C107.334 86.5297 99.5349 90.8549 90.7312 90.8549C90.0671 90.8549 89.403 90.8294 88.756 90.7783C88.7645 90.8208 88.773 90.8549 88.773 90.8549C88.773 90.8549 62.711 88.9222 59.7906 67.245C60.1823 72.2854 60.9571 77.2237 62.098 82.0172C66.4998 100.706 76.3252 117.3 89.8287 130.054L89.9735 130.199C90.3055 130.506 90.6461 130.821 90.9867 131.136C97.9343 137.308 107.079 141.063 117.1 141.063C127.121 141.063 136.265 137.308 143.213 131.136C143.553 130.821 143.894 130.506 144.226 130.199L144.371 130.054C157.874 117.3 167.7 100.706 172.101 82.0172C173.37 76.6617 174.196 71.1445 174.519 65.4911C172.808 88.82 145.35 90.8549 145.35 90.8549ZM110.689 84.1031C110.663 83.8647 110.672 83.7285 110.672 83.7285V83.703C110.697 82.5025 112.562 80.7741 115.133 80.144C115.141 80.144 115.15 80.1355 115.158 80.1355C115.371 80.0844 115.584 80.0419 115.806 80.0078C116.223 79.9397 116.657 79.9056 117.1 79.9056C117.542 79.9056 117.977 79.9397 118.394 80.0078C118.658 80.0504 118.905 80.1015 119.152 80.1696C119.194 80.1781 119.228 80.1866 119.271 80.1951C121.731 80.8677 123.502 82.5365 123.528 83.703V83.7285C123.528 83.7285 123.536 83.8647 123.511 84.1031C123.511 84.2053 123.502 84.3245 123.494 84.4522C123.494 84.4607 123.494 84.4607 123.494 84.4692C123.519 84.631 123.528 84.8013 123.528 84.9716C123.528 84.9716 123.732 92.115 118.751 95.6314C118.368 96.023 117.772 96.2784 117.1 96.2784C116.427 96.2784 115.831 96.023 115.448 95.6314C110.467 92.115 110.672 84.9716 110.672 84.9716C110.672 84.8013 110.68 84.631 110.706 84.4692C110.706 84.4607 110.706 84.4607 110.706 84.4522C110.697 84.3245 110.689 84.2053 110.689 84.1031ZM133.66 136.534C129.462 139.045 124.626 140.603 119.458 140.901C118.845 140.944 118.224 140.961 117.602 140.961C117.432 140.961 117.27 140.961 117.1 140.952C116.929 140.961 116.768 140.961 116.597 140.961C115.976 140.961 115.354 140.944 114.741 140.901C109.573 140.603 104.737 139.045 100.54 136.534C91.3954 131.067 85.2651 121.063 85.2651 109.629C85.2651 107.849 85.4099 106.104 85.6994 104.41C87.4533 103.831 89.3264 103.516 91.2762 103.516C96.853 103.516 101.834 106.078 105.095 110.097C108.253 107.202 112.477 105.44 117.1 105.44C121.723 105.44 125.946 107.202 129.105 110.097C132.366 106.078 137.347 103.516 142.923 103.516C144.873 103.516 146.746 103.831 148.5 104.41C148.79 106.104 148.934 107.849 148.934 109.629C148.934 121.063 142.804 131.067 133.66 136.534Z" fill="#722BE2"/>
<path d="M110.705 84.4694C110.705 84.4609 110.705 84.4609 110.705 84.4523C110.697 84.3246 110.688 84.2054 110.688 84.1033C110.663 83.8649 110.671 83.7286 110.671 83.7286V83.7031C110.697 82.5026 112.562 80.7742 115.133 80.1442C115.141 80.1442 115.15 80.1356 115.158 80.1356C115.371 80.0846 115.584 80.042 115.805 80.0079C116.223 79.9398 116.657 79.9058 117.1 79.9058C117.542 79.9058 117.977 79.9398 118.394 80.0079C118.658 80.0505 118.905 80.1016 119.152 80.1697C119.194 80.1782 119.228 80.1867 119.271 80.1952C121.731 80.8679 123.502 82.5366 123.528 83.7031V83.7286C123.528 83.7286 123.536 83.8649 123.511 84.1033C123.511 84.2054 123.502 84.3246 123.494 84.4523C123.494 84.4609 123.494 84.4609 123.494 84.4694C123.519 84.6311 123.528 84.8014 123.528 84.9717C123.528 84.9717 123.732 92.1151 118.751 95.6315C118.368 96.0231 117.772 96.2786 117.1 96.2786C116.427 96.2786 115.831 96.0231 115.448 95.6315C110.467 92.1151 110.671 84.9717 110.671 84.9717C110.671 84.8014 110.68 84.6311 110.705 84.4694Z" fill="#722BE2"/>
<path d="M148.5 104.41C148.789 106.104 148.934 107.849 148.934 109.629C148.934 121.063 142.804 131.068 133.66 136.534C129.462 139.045 124.626 140.603 119.458 140.901C118.845 140.944 118.223 140.961 117.602 140.961C117.432 140.961 117.27 140.961 117.1 140.953C116.929 140.961 116.768 140.961 116.597 140.961C115.976 140.961 115.354 140.944 114.741 140.901C109.573 140.603 104.737 139.045 100.539 136.534C91.3952 131.068 85.265 121.063 85.265 109.629C85.265 107.849 85.4098 106.104 85.6992 104.41C87.4532 103.831 89.3263 103.516 91.276 103.516C96.8528 103.516 101.834 106.078 105.095 110.097C108.253 107.202 112.476 105.44 117.1 105.44C121.723 105.44 125.946 107.202 129.105 110.097C132.366 106.078 137.346 103.516 142.923 103.516C144.873 103.516 146.746 103.831 148.5 104.41Z" fill="#722BE2"/>
<path d="M174.698 59.6931C174.698 61.2341 174.664 62.7752 174.587 64.2992C174.57 64.7079 174.545 65.1081 174.519 65.4912C172.808 88.8201 145.35 90.855 145.35 90.855C145.35 90.855 145.358 90.821 145.375 90.7784C144.72 90.8295 144.064 90.855 143.391 90.855C134.588 90.855 126.797 86.5298 122.046 79.8802C121.927 79.7014 121.799 79.5311 121.663 79.3694C120.582 78.0582 118.947 77.2153 117.1 77.2153V54.2269H117.023V77.2153C115.175 77.2153 113.541 78.0582 112.459 79.3694C112.323 79.5311 112.195 79.7014 112.076 79.8802C107.334 86.5298 99.5347 90.855 90.7311 90.855C90.0669 90.855 89.4028 90.8295 88.7558 90.7784C88.7643 90.821 88.7728 90.855 88.7728 90.855C88.7728 90.855 62.7108 88.9223 59.7905 67.2452C59.782 67.0664 59.7649 66.8876 59.7479 66.7088C59.6457 65.2017 59.5691 63.6862 59.535 62.1537V62.0855C59.535 62.0855 59.5265 62.077 59.535 62.0685C59.5095 61.2767 59.501 60.4849 59.501 59.6931C59.501 53.7246 60.0374 47.8839 61.0846 42.2134C61.0761 42.1879 61.0846 42.1623 61.0931 42.1453C61.5529 39.6081 62.1148 37.1049 62.7789 34.6528C67.3085 19.4464 78.0449 6.91353 92.0508 0C98.2661 4.69984 103.238 10.9493 106.389 18.1778C109.428 16.0578 113.115 14.8232 117.1 14.8232C121.084 14.8232 124.771 16.0578 127.81 18.1778C130.961 10.9493 135.933 4.69984 142.148 0C156.154 6.91353 166.891 19.4464 171.42 34.6528C172.084 37.1049 172.646 39.6081 173.106 42.1453C173.114 42.1623 173.123 42.1879 173.114 42.2134C174.162 47.8839 174.698 53.7246 174.698 59.6931Z" fill="#722BE2"/>
<path d="M118.751 95.6315C118.368 96.0231 117.772 96.2786 117.1 96.2786C116.427 96.2786 115.831 96.0231 115.448 95.6315C110.467 92.1151 110.671 84.9717 110.671 84.9717C110.671 84.8014 110.68 84.6311 110.705 84.4694C110.705 84.4609 110.705 84.4609 110.705 84.4523C110.705 84.4268 110.714 84.4013 110.722 84.3757C110.765 84.0607 110.842 83.7627 110.961 83.4732V83.4647C111.582 81.8896 113.14 80.655 115.124 80.1527C115.15 80.1442 115.167 80.1356 115.184 80.1356C115.201 80.1271 115.218 80.1271 115.235 80.1271C115.422 80.076 115.61 80.042 115.805 80.0079C116.223 79.9398 116.657 79.9058 117.1 79.9058C117.542 79.9058 117.977 79.9398 118.394 80.0079C118.649 80.0505 118.896 80.1016 119.134 80.1697C119.143 80.1697 119.143 80.1697 119.151 80.1697C121.467 80.7827 123.187 82.4004 123.477 84.3757C123.485 84.4013 123.494 84.4268 123.494 84.4523C123.494 84.4609 123.494 84.4609 123.494 84.4694C123.519 84.6311 123.528 84.8014 123.528 84.9717C123.528 84.9717 123.732 92.1151 118.751 95.6315Z" fill="#E58A38"/>
<path d="M123.511 84.1033C123.511 84.2054 123.502 84.3246 123.494 84.4523C123.494 84.4609 123.494 84.4609 123.494 84.4694C123.341 86.0445 122.583 89.6801 118.751 91.7064C118.368 91.9959 117.772 92.1832 117.1 92.1832C116.427 92.1832 115.831 91.9959 115.448 91.7064C111.616 89.6801 110.859 86.0445 110.705 84.4694C110.705 84.4609 110.705 84.4609 110.705 84.4523C110.697 84.3246 110.688 84.2054 110.688 84.1033C110.663 83.8649 110.671 83.7286 110.671 83.7286V83.7031L110.961 83.4732V83.4647L115.124 80.1527L115.133 80.1442C115.141 80.1442 115.15 80.1356 115.158 80.1356H115.184C115.201 80.1271 115.218 80.1271 115.235 80.1271C115.814 80.025 116.427 79.9739 117.066 79.9739C117.789 79.9739 118.487 80.042 119.135 80.1697C119.143 80.1697 119.143 80.1697 119.152 80.1697C119.194 80.1782 119.228 80.1867 119.271 80.1952C121.731 80.8679 123.502 82.5366 123.528 83.7031V83.7286C123.528 83.7286 123.536 83.8649 123.511 84.1033Z" fill="#E51C3C"/>
<path d="M148.934 109.629C148.934 121.063 142.804 131.068 133.66 136.534C129.462 139.045 124.626 140.603 119.458 140.901C118.845 140.944 118.223 140.961 117.602 140.961C117.432 140.961 117.27 140.961 117.1 140.953C116.929 140.961 116.768 140.961 116.597 140.961C115.976 140.961 115.354 140.944 114.741 140.901C109.573 140.603 104.737 139.045 100.539 136.534C91.3952 131.068 85.265 121.063 85.265 109.629C85.265 107.849 85.4098 106.104 85.6992 104.41C87.4532 103.831 89.3263 103.516 91.276 103.516C96.8528 103.516 101.834 106.078 105.095 110.097C108.253 107.202 112.476 105.44 117.1 105.44C121.723 105.44 125.946 107.202 129.105 110.097C132.366 106.078 137.346 103.516 142.923 103.516C144.873 103.516 146.746 103.831 148.5 104.41C148.789 106.104 148.934 107.849 148.934 109.629Z" fill="#2C0D68"/>
<path d="M117.1 43.0478C119.77 43.0478 121.936 40.0173 121.936 36.279C121.936 32.5407 119.77 29.5103 117.1 29.5103C114.429 29.5103 112.264 32.5407 112.264 36.279C112.264 40.0173 114.429 43.0478 117.1 43.0478Z" fill="#2C0D68"/>
<path d="M98.13 22.7244C95.763 21.7708 93.1832 21.2514 90.4757 21.2514C84.7286 21.2514 79.5349 23.5928 75.7887 27.3731C76.1548 18.4247 82.2169 10.9407 90.4416 8.45459C94.7243 11.8688 97.6191 16.9518 98.13 22.7244Z" fill="#2C0D68"/>
<path d="M136.069 22.7244C138.436 21.7708 141.016 21.2514 143.724 21.2514C149.471 21.2514 154.664 23.5928 158.411 27.3731C158.045 18.4247 151.982 10.9407 143.758 8.45459C139.475 11.8688 136.58 16.9518 136.069 22.7244Z" fill="#2C0D68"/>
<path d="M96.325 141.915C95.7035 144.154 94.6222 146.546 92.7406 148.232C92.383 148.692 91.8295 148.99 91.208 148.99C90.5865 148.99 90.033 148.692 89.684 148.232C87.8023 146.546 86.721 144.154 86.0995 141.906C85.197 138.662 85.2651 135.733 85.2651 135.733C85.2651 133.273 86.7636 131.161 88.9007 130.259C89.1135 130.174 89.3093 130.106 89.4711 130.046C90.016 129.884 90.6035 129.791 91.208 129.791C91.7955 129.791 92.3745 129.876 92.9108 130.037C93.0982 130.106 93.3195 130.182 93.5664 130.276C95.678 131.187 97.1509 133.29 97.1509 135.733C97.1509 135.733 97.219 138.662 96.325 141.915Z" fill="#FCB435"/>
<path d="M85.265 135.733C85.265 135.733 85.1969 138.662 86.0994 141.906C78.956 145.976 72.8428 146.581 73.9837 143.49C77.466 135.248 85.6482 131.468 88.9006 130.259C86.7635 131.161 85.265 133.273 85.265 135.733Z" fill="#E58A38"/>
<path d="M96.325 141.915C97.219 138.662 97.1509 135.733 97.1509 135.733C97.1509 133.29 95.6779 131.187 93.5664 130.276C96.8614 131.51 104.975 135.299 108.432 143.49C109.573 146.572 103.46 145.976 96.325 141.915Z" fill="#E58A38"/>
<path d="M137.874 141.915C138.496 144.154 139.577 146.546 141.459 148.232C141.816 148.692 142.37 148.99 142.991 148.99C143.613 148.99 144.166 148.692 144.515 148.232C146.397 146.546 147.478 144.154 148.1 141.906C149.002 138.662 148.934 135.733 148.934 135.733C148.934 133.273 147.436 131.161 145.299 130.259C145.086 130.174 144.89 130.106 144.728 130.046C144.183 129.884 143.596 129.791 142.991 129.791C142.404 129.791 141.825 129.876 141.288 130.037C141.101 130.106 140.88 130.182 140.633 130.276C138.521 131.187 137.048 133.29 137.048 135.733C137.048 135.733 136.98 138.662 137.874 141.915Z" fill="#FCB435"/>
<path d="M148.934 135.733C148.934 135.733 149.002 138.662 148.1 141.906C155.243 145.976 161.356 146.581 160.216 143.49C156.733 135.248 148.551 131.468 145.299 130.259C147.436 131.161 148.934 133.273 148.934 135.733Z" fill="#E58A38"/>
<path d="M137.874 141.915C136.98 138.662 137.048 135.733 137.048 135.733C137.048 133.29 138.521 131.187 140.633 130.276C137.338 131.51 129.224 135.299 125.767 143.49C124.626 146.572 130.739 145.976 137.874 141.915Z" fill="#E58A38"/>
<path d="M16.3425 84.8952H16.2659V84.8101C16.2914 84.8441 16.317 84.8697 16.3425 84.8952Z" fill="#722BE2"/>
<path d="M16.3425 84.8952H16.2659V84.8101C16.2914 84.8441 16.317 84.8697 16.3425 84.8952Z" fill="#722BE2"/>
<path d="M5.01009 64.3335C4.96752 64.3079 4.93347 64.2824 4.89941 64.2654C4.91644 64.2143 4.93347 64.1717 4.9505 64.1206C4.96753 64.1972 4.98455 64.2653 5.01009 64.3335Z" fill="#722BE2"/>
<path d="M5.01009 64.3335C4.96752 64.3079 4.93347 64.2824 4.89941 64.2654C4.91644 64.2143 4.93347 64.1717 4.9505 64.1206C4.96753 64.1972 4.98455 64.2653 5.01009 64.3335Z" fill="#722BE2"/>
<path d="M3.55423 39.7869C3.55423 39.8039 3.54572 39.8294 3.54572 39.855C3.5372 39.8465 3.5372 39.8294 3.52869 39.8124C3.5372 39.8039 3.54571 39.7954 3.55423 39.7869Z" fill="#722BE2"/>
<path d="M3.55423 39.7869C3.55423 39.8039 3.54572 39.8294 3.54572 39.855C3.5372 39.8465 3.5372 39.8294 3.52869 39.8124C3.5372 39.8039 3.54571 39.7954 3.55423 39.7869Z" fill="#722BE2"/>
<path d="M123.511 84.1033C123.502 84.1799 123.494 84.2735 123.477 84.3757C123.289 85.5422 122.464 88.0028 118.751 89.3906C118.368 89.5949 117.772 89.7312 117.1 89.7312C116.427 89.7312 115.831 89.5949 115.448 89.3906C111.736 88.0028 110.91 85.5422 110.722 84.3757C110.705 84.2735 110.697 84.1799 110.688 84.1033C110.663 83.8649 110.671 83.7286 110.671 83.7286V83.7031C110.697 82.5026 112.562 80.7742 115.133 80.1442C115.141 80.1442 115.15 80.1356 115.158 80.1356C115.371 80.0846 115.584 80.042 115.805 80.0079C116.223 79.9398 116.657 79.9058 117.1 79.9058C117.542 79.9058 117.977 79.9398 118.394 80.0079C118.658 80.0505 118.905 80.1016 119.152 80.1697C119.194 80.1782 119.228 80.1867 119.271 80.1952C121.731 80.8679 123.502 82.5366 123.528 83.7031V83.7286C123.528 83.7286 123.536 83.8649 123.511 84.1033Z" fill="#FFBD52"/>
<path d="M117.792 74.2453H117.882C119.729 74.2453 121.374 75.081 122.468 76.4102C122.598 76.5713 122.719 76.7425 122.839 76.9338C127.616 83.6299 135.463 88 144.314 88C144.976 88 145.639 87.9698 146.291 87.9194C146.291 87.9698 179.386 86.3386 174.499 50.5622C173.215 38.9221 164.414 29.5475 153.085 27.4531C151.509 27.151 149.893 27 148.238 27C137.049 27 127.666 33.7666 123.823 43.6043C123.823 43.6144 123.401 44.6012 123.221 44.9536C123.231 44.9637 123.221 44.9637 123.211 44.9637C122.247 46.9473 120.22 48.3067 117.882 48.3067H117.109C114.771 48.3067 112.744 46.9473 111.781 44.9637C111.771 44.9637 111.761 44.9637 111.771 44.9536C111.59 44.6012 111.169 43.6144 111.169 43.6043C107.325 33.7666 97.9427 27 86.7538 27C85.0981 27 83.4824 27.151 81.907 27.4531C70.5775 29.5475 61.7769 38.9221 60.4925 50.5622C55.6055 86.3386 88.7006 87.9698 88.7006 87.9194C89.3529 87.9698 90.0152 88 90.6775 88C99.5282 88 107.376 83.6299 112.152 76.9338C112.273 76.7425 112.393 76.5713 112.523 76.4102C113.617 75.081 115.263 74.2453 117.109 74.2453H117.2H117.792V74.2453Z" fill="#2C0D68"/>
<path d="M129.517 56.085C129.517 66.4212 137.333 74.944 147.38 76.0423C148.112 76.1274 148.852 76.17 149.602 76.17C154.531 76.17 159.052 74.3905 162.552 71.4276C166.92 67.7495 169.687 62.2408 169.687 56.085C169.687 55.3358 169.644 54.5865 169.559 53.8628C168.512 44.2843 160.73 36.7407 151.041 36.0596C150.564 36.017 150.087 36 149.602 36C145.575 36 141.828 37.1835 138.687 39.2269C138.295 39.5164 137.903 39.7973 137.495 40.0698C137.486 40.0783 137.477 40.0783 137.469 40.0868C136.984 40.4529 136.515 40.8446 136.064 41.2703C136.047 41.2788 136.03 41.3043 135.996 41.3299C135.715 41.5768 135.434 41.8407 135.17 42.1302C131.671 45.7317 129.517 50.6615 129.517 56.085Z" fill="#E58A38"/>
<path d="M104.17 57.6092C104.17 67.9454 96.354 76.4681 86.3072 77.5665C85.575 77.6516 84.8342 77.6942 84.085 77.6942C79.1553 77.6942 74.6342 75.9147 71.1349 72.9518C66.7671 69.2736 64 63.7649 64 57.6092C64 56.8599 64.0426 56.1107 64.1277 55.387C65.175 45.8085 72.9569 38.2649 82.6461 37.5838C83.1229 37.5412 83.5997 37.5242 84.085 37.5242C88.1122 37.5242 91.8585 38.7076 95.0002 40.751C95.3919 41.0405 95.7835 41.3215 96.1922 41.594C96.2007 41.6025 96.2092 41.6025 96.2177 41.611C96.703 41.9771 97.1713 42.3687 97.6226 42.7945C97.6396 42.803 97.6566 42.8285 97.6907 42.8541C97.9717 43.101 98.2526 43.3649 98.5166 43.6544C102.016 47.2559 104.17 52.1856 104.17 57.6092Z" fill="#E58A38"/>
<path d="M77.5374 64.2331L73.9274 61.9684L83.4548 46.7705L94.966 59.5844L91.8072 62.4281L84.0593 53.8203L77.5374 64.2331Z" fill="#1E0540"/>
<path d="M156.626 64.2331L150.096 53.8203L142.356 62.4281L139.189 59.5844L150.7 46.7705L160.227 61.9684L156.626 64.2331Z" fill="#1E0540"/>
</svg>
