<svg width="90" height="63" viewBox="0 0 90 63" fill="none" xmlns="http://www.w3.org/2000/svg">
<path d="M70.9569 19.4668C62.2155 17.7093 53.4779 16.8346 44.7516 16.8346C36.0253 16.8346 27.2839 17.7093 18.5462 19.4668L0 0V12.2786L10.2649 31.9235L14.4697 31.9948C27.4083 32.2164 38.3068 42.2071 40.2564 55.6376L40.7542 59.01L44.7516 63L48.7716 58.8676L49.2467 55.6376C51.1964 42.2071 62.0948 32.2164 75.0335 31.9948L79.2382 31.9235L89.5031 12.2786V0L70.9569 19.4668Z" fill="#B0B0B0"/>
<path d="M57.1774 45.6824C57.1774 49.6169 60.2169 52.8073 63.9653 52.8073C67.7138 52.8073 70.7533 49.6169 70.7533 45.6824" stroke="#B0B0B0" stroke-width="2" stroke-linecap="round"/>
<path d="M18.7975 45.6824C18.7975 49.6169 21.837 52.8073 25.5855 52.8073C29.334 52.8073 32.3735 49.6169 32.3735 45.6824" stroke="#B0B0B0" stroke-width="2" stroke-linecap="round"/>
</svg>
