<svg width="416" height="19" viewBox="0 0 416 19" fill="none" xmlns="http://www.w3.org/2000/svg">
<path d="M415.87 15.69C415.87 17.43 413.45 18.83 410.47 18.83H37.35C34.36 18.83 31.95 17.43 31.95 15.69C31.95 13.96 34.36 12.55 37.35 12.55H53.92C56.89 12.55 59.32 11.15 59.32 9.41C59.32 7.68 56.9 6.27 53.92 6.27H5.4C2.41 6.27 0 4.87 0 3.13C0 1.45 2.25 0.08 5.12 0H384.31C387.18 0.08 389.43 1.45 389.43 3.13C389.43 4.87 387.02 6.27 384.03 6.27H373.24C370.27 6.27 367.84 7.68 367.84 9.41C367.84 11.15 370.26 12.55 373.24 12.55H410.47C413.44 12.55 415.87 13.96 415.87 15.69Z" fill="url(#paint0_linear_418_123)"/>
<defs>
<linearGradient id="paint0_linear_418_123" x1="207.934" y1="35.4093" x2="207.934" y2="-17.2925" gradientUnits="userSpaceOnUse">
<stop offset="0.0491" stop-color="#12022B"/>
<stop offset="0.5499" stop-color="#4805A6"/>
<stop offset="0.7182" stop-color="#6225C1"/>
</linearGradient>
</defs>
</svg>
