<svg width="147" height="98" viewBox="0 0 147 98" fill="none" xmlns="http://www.w3.org/2000/svg">
<path d="M116.424 30.2634C102.16 27.5312 87.9019 26.1713 73.6625 26.1713C59.423 26.1713 45.159 27.5312 30.9011 30.2634L0.637695 0V19.0885L17.3878 49.6288L24.2491 49.7395C45.3621 50.0841 63.146 65.6158 66.3274 86.495L67.1396 91.7379L73.6625 97.9407L80.2222 91.5163L80.9976 86.495C84.179 65.6158 101.963 50.0841 123.076 49.7395L129.937 49.6288L146.687 19.0885V0L116.424 30.2634Z" fill="#6652FA"/>
<path d="M93.939 71.0184C93.939 77.1351 98.8988 82.0949 105.015 82.0949C111.132 82.0949 116.092 77.1351 116.092 71.0184C116.092 64.9017 111.132 59.9419 105.015 59.9419C98.8988 59.9419 93.939 64.9017 93.939 71.0184Z" fill="#6652FA"/>
<path d="M31.2274 71.1727C31.2274 77.2893 36.1872 82.2491 42.3039 82.2491C48.4206 82.2491 53.3804 77.2893 53.3804 71.1727C53.3804 65.056 48.4206 60.0962 42.3039 60.0962C36.1872 60.0962 31.2274 65.056 31.2274 71.1727Z" fill="#6652FA"/>
</svg>
