<svg width="22" height="22" viewBox="0 0 22 22" fill="none" xmlns="http://www.w3.org/2000/svg">
<path d="M21.7037 20.2568L15.4834 14.0549C16.6686 12.5714 17.3831 10.7025 17.3831 8.6659C17.3831 3.88876 13.4829 0 8.69156 0C3.90028 0 0 3.88876 0 8.6659C0 13.443 3.90028 17.3318 8.69156 17.3318C10.7005 17.3318 12.5498 16.6362 14.0292 15.488L20.2579 21.6983C20.4596 21.8994 20.7202 22 20.9808 22C21.2414 22 21.502 21.8994 21.7037 21.6983C22.0988 21.3044 22.0988 20.659 21.7037 20.2568ZM2.0426 8.6659C2.0426 5.01181 5.01825 2.04495 8.68316 2.04495C12.3481 2.04495 15.3237 5.01181 15.3237 8.6659C15.3237 12.32 12.3481 15.2869 8.68316 15.2869C5.01825 15.2869 2.0426 12.32 2.0426 8.6659Z" fill="#162A6E"/>
</svg>
