<svg width="16" height="17" viewBox="0 0 16 17" fill="none" xmlns="http://www.w3.org/2000/svg">
<path d="M7.95227 8.37381C5.79051 8.37381 4.0293 6.61259 4.0293 4.45083C4.0293 2.28908 5.79051 0.521973 7.95227 0.521973C10.114 0.521973 11.8752 2.28319 11.8752 4.44494C11.8752 6.6067 10.1199 8.37381 7.95227 8.37381ZM7.95227 1.98278C6.5916 1.98278 5.4901 3.09016 5.4901 4.44494C5.4901 5.79972 6.59749 6.90711 7.95227 6.90711C9.30705 6.90711 10.4144 5.79972 10.4144 4.44494C10.4144 3.09016 9.31294 1.98278 7.95227 1.98278Z" fill="#6652FA"/>
<path d="M13.5835 16.0124H2.32702C1.8499 16.0124 1.40812 15.818 1.12538 15.4823C0.88388 15.1995 0.783744 14.8284 0.842648 14.4691C1.33744 11.6477 4.39453 9.52124 7.9523 9.52124C11.5101 9.52124 14.5672 11.6477 15.0619 14.4691C15.1267 14.8226 15.0207 15.1936 14.7792 15.4823C14.5024 15.818 14.0606 16.0124 13.5835 16.0124ZM2.32113 14.5457H2.32702H13.5835H13.5894C13.1181 12.5018 10.7384 10.9762 7.9523 10.9762C5.17205 10.982 2.78646 12.5018 2.32113 14.5457Z" fill="#6652FA"/>
</svg>
