<svg width="31" height="24" viewBox="0 0 31 34" fill="none" xmlns="http://www.w3.org/2000/svg">
<path d="M15.3184 16.8779C10.6716 16.8779 6.88574 13.0921 6.88574 8.44528C6.88574 3.79848 10.6716 0 15.3184 0C19.9652 0 23.751 3.78582 23.751 8.43262C23.751 13.0794 19.9778 16.8779 15.3184 16.8779ZM15.3184 3.14008C12.3935 3.14008 10.0258 5.52046 10.0258 8.43262C10.0258 11.3448 12.4062 13.7252 15.3184 13.7252C18.2305 13.7252 20.6109 11.3448 20.6109 8.43262C20.6109 5.52046 18.2432 3.14008 15.3184 3.14008Z" fill="#3A3A3A"/>
<path d="M27.4224 33.2998H3.22614C2.20055 33.2998 1.25093 32.8819 0.643173 32.1602C0.124047 31.5525 -0.0911998 30.7548 0.0354161 29.9824C1.09899 23.9175 7.67036 19.3467 15.318 19.3467C22.9656 19.3467 29.5369 23.9175 30.6005 29.9824C30.7398 30.7421 30.5119 31.5398 29.9928 32.1602C29.3977 32.8819 28.448 33.2998 27.4224 33.2998ZM3.21348 30.147H3.22614H27.4224H27.4351C26.4222 25.7534 21.3069 22.4741 15.318 22.4741C9.34169 22.4868 4.21374 25.7534 3.21348 30.147Z" fill="#3A3A3A"/>
</svg>
