<svg width="18" height="22" viewBox="0 0 18 22" fill="none" xmlns="http://www.w3.org/2000/svg">
<path d="M16.96 3.32H14.96H14.17V1.75C14.17 0.79 13.38 0 12.42 0H5.54C4.57 0 3.79 0.78 3.79 1.75V3.32H3H1C0.45 3.32 0 3.77 0 4.32C0 4.87 0.45 5.32 1 5.32H2V18.8C2 20.13 3.1 21.22 4.46 21.22H13.5C14.86 21.22 15.96 20.13 15.96 18.8V5.32H16.96C17.51 5.32 17.96 4.87 17.96 4.32C17.96 3.77 17.51 3.32 16.96 3.32ZM5.79 2H12.17V3.32H5.79V2ZM13.96 18.8C13.96 19.03 13.75 19.22 13.5 19.22H4.46C4.2 19.22 4 19.03 4 18.8V5.32H4.79H13.17H13.96V18.8Z" />
</svg>
