<svg width="31" height="20" viewBox="0 0 31 26" fill="none" xmlns="http://www.w3.org/2000/svg">
<path d="M27.3752 0H3.6366C1.63469 0 0 1.61041 0 3.59425V22.4057C0 24.3896 1.63469 26 3.6366 26H27.3633C29.3771 26 30.9999 24.3896 30.9999 22.4057V3.59425C31.0118 1.61041 29.3771 0 27.3752 0ZM3.6366 2.87074H27.3633C27.7661 2.87074 28.0978 3.19749 28.0978 3.59425V9.67415L15.4704 13.6885L2.89033 9.60413V3.59425C2.90217 3.19749 3.23385 2.87074 3.6366 2.87074ZM27.3752 23.1293H3.6366C3.23385 23.1293 2.90217 22.8025 2.90217 22.4057V12.6149L14.5701 16.4075C14.8781 16.5126 15.1979 16.5592 15.5059 16.5592C15.8139 16.5592 16.1337 16.5126 16.4298 16.4075L28.0978 12.6733V22.4057C28.1096 22.8025 27.7779 23.1293 27.3752 23.1293Z" fill="#3A3A3A"/>
</svg>
