<svg height="26" viewBox="0 0 21 26" fill="none" xmlns="http://www.w3.org/2000/svg">
<path d="M17.225 0C17.6945 0 18.1594 0.0924701 18.5931 0.272131C19.0268 0.451791 19.4209 0.715124 19.7529 1.04709C20.0849 1.37906 20.3482 1.77317 20.5279 2.20691C20.7075 2.64065 20.8 3.10552 20.8 3.575V22.425C20.8 22.8945 20.7075 23.3594 20.5279 23.7931C20.3482 24.2268 20.0849 24.6209 19.7529 24.9529C19.4209 25.2849 19.0268 25.5482 18.5931 25.7279C18.1594 25.9075 17.6945 26 17.225 26H3.575C3.10542 26 2.64043 25.9075 2.20661 25.7277C1.77278 25.548 1.37862 25.2846 1.04663 24.9524C0.714647 24.6203 0.451342 24.2261 0.271757 23.7922C0.0921733 23.3583 -0.000170522 22.8933 2.36386e-07 22.4237V3.575C2.36386e-07 1.937 1.0998 0.559 2.6 0.1339V2.275C2.2048 2.5714 1.95 3.042 1.95 3.575V22.4224C1.95 23.3194 2.678 24.0474 3.575 24.0474H17.225C18.122 24.0474 18.85 23.3194 18.85 22.4224V3.575C18.85 2.678 18.122 1.95 17.225 1.95H14.3V0H17.225ZM13 0V10.5807C13 11.5518 11.96 11.9158 11.323 11.5739L11.2164 11.5063L8.4526 9.8358L5.7512 11.4621C5.1012 11.9301 4.0222 11.6441 3.9091 10.7367L3.9 10.582V0H13ZM11.05 1.95H5.85V9.1299L7.8949 7.8962C8.05782 7.80959 8.23852 7.76172 8.42295 7.75631C8.60739 7.75089 8.79058 7.78809 8.9583 7.865L11.0513 9.1312V1.95H11.05Z" />
</svg>
