<svg width="25" height="31" viewBox="0 0 25 31" fill="none" xmlns="http://www.w3.org/2000/svg">
<path d="M20.4157 19.0974C20.4513 18.9192 20.4751 18.7411 20.4751 18.5511V2.92162C20.4751 1.30641 19.0855 0 17.3753 0H3.11164C1.40143 0 0 1.30641 0 2.92162V22.7435C0 24.3587 1.40143 25.677 3.11164 25.677H12.7435C13.1473 25.677 13.5273 25.5938 13.8836 25.4513C14.2874 28.1354 16.6033 30.19 19.4062 30.19C22.4941 30.19 25 27.6841 25 24.5962C25 21.8527 23.0166 19.5843 20.4157 19.0974ZM13.6342 22.9097C13.5036 23.2779 13.1591 23.5273 12.7435 23.5273H3.11164C2.58907 23.5273 2.14964 23.171 2.14964 22.7435V2.92162C2.14964 2.50594 2.58907 2.14964 3.11164 2.14964H17.3753C17.886 2.14964 18.3254 2.50594 18.3254 2.92162V18.5511C18.3254 18.8955 17.981 19.1568 17.6366 19.2518C15.7245 19.7862 14.228 21.152 13.6342 22.9097ZM19.4062 28.0404C17.5059 28.0404 15.962 26.4964 15.962 24.5962C15.962 22.696 17.5059 21.152 19.4062 21.152C21.3064 21.152 22.8504 22.696 22.8504 24.5962C22.8504 26.4964 21.3064 28.0404 19.4062 28.0404Z" fill="white"/>
<path d="M19.4061 21.1521C17.5059 21.1521 15.9619 22.696 15.9619 24.5963C15.9619 26.4965 17.5059 28.0405 19.4061 28.0405C21.3063 28.0405 22.8503 26.4965 22.8503 24.5963C22.8503 22.696 21.3063 21.1521 19.4061 21.1521ZM20.8194 25.1901H20.1187V25.8908C20.1187 26.2827 19.798 26.6034 19.4061 26.6034C19.0023 26.6034 18.6935 26.2827 18.6935 25.8908V25.1901H17.9928C17.589 25.1901 17.2683 24.8694 17.2683 24.4775C17.2683 24.0737 17.589 23.7531 17.9928 23.7531H18.6935V23.0642C18.6935 22.6604 19.0023 22.3397 19.4061 22.3397C19.798 22.3397 20.1187 22.6604 20.1187 23.0642V23.7531H20.8194C21.2113 23.7531 21.532 24.0737 21.532 24.4775C21.532 24.8694 21.2113 25.1901 20.8194 25.1901Z" fill="#6652FA"/>
<path d="M17.3753 2.14972H3.11165C2.58909 2.14972 2.14966 2.50601 2.14966 2.92169V22.7435C2.14966 23.1711 2.58909 23.5274 3.11165 23.5274H12.7435C13.1592 23.5274 13.5036 23.278 13.6342 22.9098C14.228 21.1521 15.7245 19.7863 17.6366 19.2519C17.981 19.1568 18.3254 18.8956 18.3254 18.5511V2.92169C18.3254 2.50601 17.886 2.14972 17.3753 2.14972ZM14.3349 19.1331H6.15203C5.55821 19.1331 5.08315 18.6462 5.08315 18.0523C5.08315 17.4585 5.55821 16.9834 6.15203 16.9834H14.3349C14.9288 16.9834 15.4038 17.4585 15.4038 18.0523C15.4038 18.6462 14.9288 19.1331 14.3349 19.1331ZM14.3349 13.9074H6.15203C5.55821 13.9074 5.08315 13.4324 5.08315 12.8386C5.08315 12.2447 5.55821 11.7578 6.15203 11.7578H14.3349C14.9288 11.7578 15.4038 12.2447 15.4038 12.8386C15.4038 13.4324 14.9288 13.9074 14.3349 13.9074ZM14.3349 8.68179H6.15203C5.55821 8.68179 5.08315 8.20673 5.08315 7.6129C5.08315 7.01908 5.55821 6.53214 6.15203 6.53214H14.3349C14.9288 6.53214 15.4038 7.01908 15.4038 7.6129C15.4038 8.20673 14.9288 8.68179 14.3349 8.68179Z" fill="#6652FA"/>
<path d="M21.5322 24.4775C21.5322 24.8694 21.2115 25.1901 20.8196 25.1901H20.1189V25.8908C20.1189 26.2827 19.7982 26.6034 19.4063 26.6034C19.0025 26.6034 18.6937 26.2827 18.6937 25.8908V25.1901H17.993C17.5892 25.1901 17.2686 24.8694 17.2686 24.4775C17.2686 24.0737 17.5892 23.753 17.993 23.753H18.6937V23.0642C18.6937 22.6604 19.0025 22.3397 19.4063 22.3397C19.7982 22.3397 20.1189 22.6604 20.1189 23.0642V23.753H20.8196C21.2115 23.753 21.5322 24.0737 21.5322 24.4775Z" fill="white"/>
<path d="M15.4034 7.6128C15.4034 8.20663 14.9284 8.68169 14.3345 8.68169H6.15165C5.55782 8.68169 5.08276 8.20663 5.08276 7.6128C5.08276 7.01898 5.55782 6.53204 6.15165 6.53204H14.3345C14.9284 6.53204 15.4034 7.01898 15.4034 7.6128Z" fill="white"/>
<path d="M15.4034 12.8384C15.4034 13.4322 14.9284 13.9073 14.3345 13.9073H6.15165C5.55782 13.9073 5.08276 13.4322 5.08276 12.8384C5.08276 12.2446 5.55782 11.7576 6.15165 11.7576H14.3345C14.9284 11.7576 15.4034 12.2446 15.4034 12.8384Z" fill="white"/>
<path d="M15.4034 18.0523C15.4034 18.6462 14.9284 19.1331 14.3345 19.1331H6.15165C5.55782 19.1331 5.08276 18.6462 5.08276 18.0523C5.08276 17.4585 5.55782 16.9835 6.15165 16.9835H14.3345C14.9284 16.9835 15.4034 17.4585 15.4034 18.0523Z" fill="white"/>
</svg>
