<svg height="26" viewBox="0 0 27 27" fill="none" xmlns="http://www.w3.org/2000/svg">
<path d="M23.06 0.0302734H7.78C7.77 0.0302734 7.77001 0.0302734 7.76001 0.0302734H4.11C3.62 0.0302734 3.17001 0.330273 2.98001 0.780273C2.79001 1.24027 2.89001 1.76027 3.24001 2.12027L6.54001 5.45027V6.67027H3.09001C1.39001 6.67027 0 8.06027 0 9.76027V23.2003C0 24.9103 1.39001 26.3003 3.09001 26.3003H18.31H19.54H21.96C22.45 26.3003 22.9 26.0003 23.09 25.5503C23.28 25.0903 23.18 24.5703 22.83 24.2103L19.53 20.8703V19.6603H23.06C24.77 19.6603 26.17 18.2603 26.17 16.5503V3.13027C26.16 1.42027 24.77 0.0302734 23.06 0.0302734ZM17.07 21.3803V23.8503H3.08C2.73 23.8503 2.44 23.5603 2.44 23.2103V9.76027C2.44 9.41027 2.73 9.12027 3.08 9.12027H6.53H16.43C16.78 9.12027 17.07 9.41027 17.07 9.76027V19.6603V21.3803ZM23.71 16.5403C23.71 16.9003 23.42 17.2003 23.06 17.2003H19.53V9.76027C19.53 8.06027 18.14 6.67027 16.43 6.67027H8.98001V4.95027V4.94027V2.48027H23.05C23.41 2.48027 23.7 2.77027 23.7 3.13027V16.5403H23.71Z" />
</svg>
