<svg width="18" height="16" viewBox="0 0 18 16" fill="none" xmlns="http://www.w3.org/2000/svg">
<path d="M10.0721 1.45901C9.69095 0.985821 9.19803 0.598064 8.63283 0.341751C8.14649 0.124871 7.61415 0 7.04894 0C4.90643 0 3.17139 1.74162 3.17139 3.87756C3.17139 6.0135 4.913 7.75512 7.04894 7.75512C7.61415 7.75512 8.14649 7.63682 8.63283 7.41337C9.19803 7.16363 9.69095 6.77587 10.0721 6.29611C10.6045 5.63232 10.9265 4.78452 10.9265 3.87099C10.9265 2.95746 10.6045 2.1228 10.0721 1.45901ZM7.19353 6.30925C7.14753 6.31582 7.10151 6.31582 7.0555 6.31582C5.70821 6.31582 4.62382 5.22485 4.62382 3.88413C4.62382 2.53684 5.71479 1.45244 7.0555 1.45244C7.10151 1.45244 7.1541 1.45244 7.19353 1.45901C7.74559 1.4853 8.24507 1.70218 8.63283 2.03736C9.15203 2.48427 9.4872 3.14148 9.4872 3.88413C9.4872 4.62021 9.1586 5.284 8.63283 5.7309C8.2385 6.06608 7.73902 6.28296 7.19353 6.30925Z" fill="#6652FA"/>
<path d="M14.0877 13.8672C14.0877 13.8409 14.0811 13.8146 14.0811 13.7884C13.8643 12.5396 13.1348 11.4224 12.0766 10.5811C11.1434 9.83192 9.95385 9.28644 8.63285 9.04327C8.12679 8.94469 7.59445 8.89868 7.04896 8.89868C3.5263 8.89868 0.503105 11.0018 0.0167672 13.7884C-0.042382 14.1367 0.0562088 14.5047 0.292806 14.7873C0.575408 15.1225 1.00917 15.3131 1.48236 15.3131H12.6156C13.0888 15.3131 13.5225 15.1225 13.8051 14.7873C14.022 14.5244 14.1206 14.1958 14.0877 13.8672ZM4.65014 13.8672C4.64356 13.8672 4.64356 13.8672 4.64356 13.8672H1.47578C1.83068 12.3228 3.28969 11.0806 5.18904 10.5811C5.77396 10.43 6.39832 10.3446 7.04896 10.3446C7.60102 10.3446 8.12679 10.4037 8.63285 10.5154C10.6571 10.9623 12.2475 12.2505 12.6156 13.8672H4.65014Z" fill="#6652FA"/>
<path d="M15.2509 15.3129C15.2509 15.3129 17.7089 15.6415 17.676 13.9196C17.6432 12.1254 15.3692 9.41114 11.8663 8.97738C11.6297 8.95766 11.6297 9.06282 11.8137 9.1614C11.9977 9.25998 13.2399 9.87119 14.2125 11.2053C14.8435 12.0663 15.3495 13.1375 15.3035 14.0774C15.2838 14.5703 15.1063 14.866 15.034 14.9975C14.9683 15.1223 14.9092 15.2669 15.2509 15.3129Z" fill="#6652FA"/>
<path d="M10.4074 0.0131035C10.2694 0.0262478 10.2562 0.131402 10.3416 0.190551C10.3416 0.190551 12.1424 1.44583 12.149 3.88409C12.1424 6.32893 10.3416 7.57763 10.3416 7.57763C10.2562 7.63678 10.2694 7.74194 10.4074 7.75508C12.5039 7.81423 14.515 6.10547 14.5084 3.88409C14.515 1.64299 12.5039 -0.0460457 10.4074 0.0131035Z" fill="#6652FA"/>
</svg>
