<svg width="23" height="27" viewBox="0 0 23 27" fill="none" xmlns="http://www.w3.org/2000/svg">
<path d="M21.59 19.3399C19.93 18.4399 18.9 16.7099 18.9 14.8299V10.8399C18.93 10.5799 18.94 10.3299 18.94 10.0899C18.94 6.37992 16.26 3.28992 12.73 2.63992V1.65992C12.73 0.979922 12.18 0.419922 11.49 0.419922C10.81 0.419922 10.25 0.969922 10.25 1.65992V2.59992C6.59 3.13992 3.77002 6.28992 3.77002 10.0899C3.77002 10.3299 3.78 10.5899 3.81 10.8399V14.8299C3.81 16.7099 2.77999 18.4399 1.12 19.3399C0.429995 19.7099 0 20.4399 0 21.2399C0 22.4399 0.969983 23.4099 2.16998 23.4099H7.08002C7.74002 25.1699 9.43001 26.3899 11.39 26.3899C13.35 26.3899 15.04 25.1699 15.7 23.4099H20.53C21.73 23.4099 22.7 22.4399 22.7 21.2399C22.71 20.4399 22.28 19.7099 21.59 19.3399ZM11.4 24.5399C10.49 24.5399 9.67998 24.0999 9.16998 23.4099H13.62C13.12 24.0999 12.31 24.5399 11.4 24.5399ZM3.21002 20.9399C5.13002 19.5199 6.28998 17.2599 6.28998 14.8399V10.7799L6.27997 10.6499C6.25997 10.4699 6.25 10.2799 6.25 10.0899C6.25 7.26992 8.53999 4.97992 11.36 4.97992C14.18 4.97992 16.47 7.26992 16.47 10.0899C16.47 10.2799 16.46 10.4599 16.44 10.6499L16.43 14.8399C16.43 17.2699 17.59 19.5199 19.51 20.9399H3.21002Z" />
</svg>
