<svg width="24" height="22" viewBox="0 0 24 22" fill="none" xmlns="http://www.w3.org/2000/svg">
<path d="M15.43 21.26H7.86C6.41 21.26 5.06 20.48 4.33 19.22L0.54 12.66C-0.18 11.4 -0.18 9.84 0.54 8.59L4.33 2.03C5.06 0.78 6.41 0 7.86 0H15.43C16.88 0 18.23 0.78 18.96 2.04L22.75 8.6C23.47 9.86 23.47 11.42 22.75 12.67L18.96 19.23C18.23 20.48 16.88 21.26 15.43 21.26ZM7.86 2.29C7.23 2.29 6.64 2.63 6.32 3.18L2.53 9.74C2.21 10.29 2.21 10.97 2.53 11.52L6.32 18.08C6.64 18.63 7.23 18.97 7.86 18.97H15.43C16.06 18.97 16.65 18.63 16.97 18.08L20.76 11.52C21.08 10.97 21.08 10.29 20.76 9.74L16.97 3.18C16.65 2.63 16.06 2.29 15.43 2.29H7.86Z" fill="white"/>
<path d="M11.6502 14.42C10.3002 14.42 9.05018 13.69 8.37018 12.53C7.70018 11.36 7.70018 9.90998 8.37018 8.73998C9.04018 7.56998 10.3002 6.84998 11.6502 6.84998C13.0002 6.84998 14.2502 7.57998 14.9302 8.73998C15.6002 9.90998 15.6002 11.36 14.9302 12.53C14.2502 13.69 12.9902 14.42 11.6502 14.42ZM11.6502 8.56998C10.9102 8.56998 10.2302 8.96998 9.86018 9.59998C9.49018 10.24 9.49018 11.03 9.86018 11.66C10.2302 12.3 10.9102 12.69 11.6502 12.69C12.3902 12.69 13.0702 12.29 13.4402 11.66C13.8102 11.02 13.8102 10.23 13.4402 9.58998C13.0702 8.95998 12.3802 8.56998 11.6502 8.56998Z" fill="white"/>
</svg>
