<svg width="13" height="13" viewBox="0 0 13 13" fill="none" xmlns="http://www.w3.org/2000/svg">
<path d="M9.72927 2.84088C9.40808 2.51984 8.89234 2.51984 8.57114 2.84088L3.70792 7.70173C3.61292 7.79668 3.54958 7.90973 3.51339 8.02729C3.49077 8.06346 3.46815 8.10416 3.45458 8.14938L3.04743 9.25268C2.98409 9.41998 3.14695 9.58276 3.31434 9.51946L4.41818 9.1125C4.45889 9.09894 4.49509 9.07633 4.53128 9.05372C4.65342 9.01755 4.77105 8.94972 4.86605 8.85476L9.72927 3.99392C10.0459 3.6774 10.0459 3.1574 9.72927 2.84088Z" fill="#4FA4FA"/>
<path d="M11.3084 13H1.69651C0.761193 13 0 12.2258 0 11.2807V1.71423C0 0.769142 0.761193 0 1.69651 0H11.3035C12.2388 0 13 0.769142 13 1.71423V11.2807C13.005 12.2258 12.2438 13 11.3084 13ZM1.69651 0.950116C1.2786 0.950116 0.935322 1.29698 0.935322 1.71926V11.2858C0.935322 11.708 1.27363 12.0549 1.69651 12.0549H11.3035C11.7214 12.0549 12.0647 11.7131 12.0647 11.2858V1.71423C12.0647 1.29196 11.7214 0.945089 11.3035 0.945089H1.69651V0.950116Z" fill="#4FA4FA"/>
</svg>
