<svg width="28" height="25" viewBox="0 0 28 34" fill="none" xmlns="http://www.w3.org/2000/svg">
<path d="M22.9157 7.55837H21.6876C21.4217 3.3424 17.9147 0 13.6355 0C9.35618 0 5.8492 3.3424 5.58332 7.55837H4.31727C1.93708 7.55837 0 9.49544 0 11.8756V28.9928C0 31.3729 1.93708 33.31 4.31727 33.31H22.9157C25.2959 33.31 27.2329 31.3729 27.2329 28.9928V11.8756C27.2329 9.49544 25.2959 7.55837 22.9157 7.55837ZM13.6355 3.11451C16.2056 3.11451 18.3199 5.06424 18.5731 7.57103H8.68517C8.95104 5.06424 11.0654 3.11451 13.6355 3.11451ZM24.1184 28.9928C24.1184 29.6511 23.574 30.1955 22.9157 30.1955H4.31727C3.65892 30.1955 3.11451 29.6511 3.11451 28.9928V11.8756C3.11451 11.2173 3.65892 10.6729 4.31727 10.6729H5.86186H21.3964H22.9157C23.5867 10.6729 24.1184 11.2173 24.1184 11.8756V28.9928Z" fill="#3A3A3A"/>
<path d="M13.6228 23.5357C15.3359 23.5357 16.7247 22.147 16.7247 20.4339C16.7247 18.7208 15.3359 17.332 13.6228 17.332C11.9097 17.332 10.521 18.7208 10.521 20.4339C10.521 22.147 11.9097 23.5357 13.6228 23.5357Z" fill="#3A3A3A"/>
</svg>
