<svg width="22" height="24" viewBox="0 0 22 24" fill="none" xmlns="http://www.w3.org/2000/svg">
<path d="M10.9268 12.0395C7.61215 12.0395 4.91162 9.33895 4.91162 6.02425C4.91162 2.70956 7.61215 0 10.9268 0C14.2415 0 16.9421 2.70053 16.9421 6.01522C16.9421 9.32992 14.2506 12.0395 10.9268 12.0395ZM10.9268 2.2399C8.84048 2.2399 7.15152 3.93789 7.15152 6.01522C7.15152 8.09255 8.84951 9.79054 10.9268 9.79054C13.0042 9.79054 14.7022 8.09255 14.7022 6.01522C14.7022 3.93789 13.0132 2.2399 10.9268 2.2399Z" fill="white"/>
<path d="M19.5612 23.7539H2.30129C1.56971 23.7539 0.892322 23.4558 0.458793 22.941C0.0884864 22.5075 -0.0650554 21.9385 0.0252633 21.3875C0.78394 17.0613 5.47148 13.8008 10.9267 13.8008C16.382 13.8008 21.0695 17.0613 21.8282 21.3875C21.9275 21.9295 21.765 22.4985 21.3947 22.941C20.9702 23.4558 20.2928 23.7539 19.5612 23.7539ZM2.29226 21.505H2.30129H19.5612H19.5702C18.8477 18.3709 15.1988 16.0317 10.9267 16.0317C6.66369 16.0407 3.00578 18.3709 2.29226 21.505Z" fill="white"/>
</svg>
