<svg height="26" viewBox="0 0 33 33" fill="none" xmlns="http://www.w3.org/2000/svg">
<path d="M26.1999 33H20.2953C19.4282 33 18.714 32.2901 18.714 31.428V23.441H14.2888V31.428C14.2888 32.2901 13.5746 33 12.7075 33H6.80289C5.9357 33 5.22156 32.2901 5.22156 31.428V17.977H1.587C0.949365 17.977 0.375497 17.5966 0.120442 17.0008C-0.121861 16.4176 0.00567194 15.733 0.464772 15.2893L15.3855 0.456396C15.9976 -0.152132 17.0051 -0.152132 17.6173 0.456396L32.538 15.2893C32.9844 15.733 33.1247 16.4176 32.8823 17.0008C32.64 17.5839 32.0662 17.977 31.4158 17.977H27.7812V31.428C27.7812 32.2901 27.0798 33 26.1999 33ZM21.8767 29.8559H24.6186V16.4049C24.6186 15.5428 25.3327 14.8329 26.1999 14.8329H27.6027L16.5078 3.8033L5.41284 14.8329H6.81566C7.68285 14.8329 8.39699 15.5428 8.39699 16.4049V29.8559H11.1389V21.869C11.1389 21.0069 11.853 20.297 12.7202 20.297H20.3081C21.1753 20.297 21.8894 21.0069 21.8894 21.869V29.8559H21.8767Z" />
</svg>
