<svg width="16" height="15" viewBox="0 0 16 15" fill="none" xmlns="http://www.w3.org/2000/svg">
<path d="M15.3331 7.08783L8.60083 2.26539C8.31264 2.0587 7.91224 2.26539 7.91224 2.61854V4.76224C7.91224 5.00201 7.71736 5.19689 7.4776 5.19689H4.80476C4.565 5.19689 4.37012 5.39177 4.37012 5.63153V9.25043C4.37012 9.4902 4.565 9.68508 4.80476 9.68508H7.47878C7.71854 9.68508 7.91342 9.87996 7.91342 10.1197V12.2634C7.91342 12.6178 8.31382 12.8233 8.60201 12.6166L15.3343 7.79413C15.5752 7.62051 15.5752 7.26146 15.3331 7.08783Z" fill="#FFFFFF"/>
<path d="M6.14173 1.82008V0.660236C6.14173 0.295276 5.84646 0 5.4815 0H2.48031H0.660236C0.295276 0 0 0.295276 0 0.660236V2.48031V12.5197V14.3398C0 14.7047 0.295276 15 0.660236 15H2.48031H5.4815C5.84646 15 6.14173 14.7047 6.14173 14.3398V13.1787C6.14173 12.8138 5.84646 12.5185 5.4815 12.5185H3.14055C2.77559 12.5185 2.48031 12.2232 2.48031 11.8583V3.14055C2.48031 2.77559 2.77559 2.48031 3.14055 2.48031H5.48268C5.84646 2.48031 6.14173 2.18504 6.14173 1.82008Z" fill="#FFFFFF"/>
</svg>
