<svg width="23" height="22" viewBox="0 0 23 22" fill="none" xmlns="http://www.w3.org/2000/svg">
<path d="M21.9389 0H1.07019C0.479741 0 0 0.479741 0 1.07019V20.2506C0 20.7027 0.276773 21.0994 0.701159 21.2562C0.821094 21.3023 0.950255 21.3208 1.07019 21.3208C1.37464 21.3208 1.67909 21.1916 1.88206 20.9425L6.96546 15.0288H21.9297C22.5201 15.0288 22.9999 14.5491 22.9999 13.9586V1.07019C23.0091 0.479741 22.5294 0 21.9389 0ZM20.8687 12.8884H6.4765C6.16282 12.8884 5.8676 13.0268 5.66463 13.2667L2.14961 17.3537V2.14961H20.8687V12.8884Z" fill="white"/>
<path d="M11.5048 6.14429C10.9143 6.14429 10.4346 6.62403 10.4346 7.21448V10.6557C10.4346 11.2461 10.9143 11.7259 11.5048 11.7259C12.0952 11.7259 12.575 11.2461 12.575 10.6557V7.2237C12.5842 6.62403 12.0952 6.14429 11.5048 6.14429Z" fill="white"/>
<path d="M11.5046 5.46173C12.1135 5.46173 12.6025 4.97276 12.6025 4.36386C12.6025 3.75496 12.1135 3.26599 11.5046 3.26599C10.8957 3.26599 10.4067 3.75496 10.4067 4.36386C10.4067 4.97276 10.8957 5.46173 11.5046 5.46173Z" fill="white"/>
</svg>
