<svg height="26" viewBox="0 0 27 27" fill="none" xmlns="http://www.w3.org/2000/svg">
<path d="M22.86 3.33H20.9V1.23C20.9 0.55 20.35 0 19.67 0C18.99 0 18.44 0.55 18.44 1.23V3.34H7.92001V1.23C7.92001 0.55 7.37 0 6.69 0C6.01 0 5.46 0.55 5.46 1.23V3.34H3.37C1.51 3.34 0 4.85 0 6.71V22.93C0 24.79 1.51 26.3 3.37 26.3H22.85C24.71 26.3 26.22 24.79 26.22 22.93V6.7C26.23 4.84 24.71 3.33 22.86 3.33ZM3.38 5.78H22.86C23.37 5.78 23.78 6.19 23.78 6.7V8.38H2.46V6.7C2.46 6.2 2.87 5.78 3.38 5.78ZM22.86 23.85H3.38C2.87 23.85 2.46 23.44 2.46 22.93V10.83H23.78V22.92C23.78 23.43 23.36 23.85 22.86 23.85Z" />
</svg>
