<svg width="24" height="24" viewBox="0 0 24 24" fill="none" xmlns="http://www.w3.org/2000/svg">
<path d="M12 24C5.3803 24 0 18.6175 0 12.0048C0 5.39207 5.3803 0 12 0C18.6197 0 24 5.38246 24 12.0048C24 18.6272 18.6101 24 12 24ZM12 2.28755C6.64852 2.28755 2.28663 6.64157 2.28663 12.0048C2.28663 17.3584 6.63891 21.7221 12 21.7221C17.3515 21.7221 21.7134 17.368 21.7134 12.0048C21.7038 6.64157 17.3515 2.28755 12 2.28755Z" fill="white"/>
<path d="M11.9998 15.5226C11.5291 15.5226 11.1448 15.1381 11.1448 14.6672V11.6107C11.1448 11.1589 11.5002 10.7745 11.9518 10.7553C12.9414 10.6976 13.5659 10.2458 13.8445 9.3712C14.0463 8.74645 13.979 8.09286 13.662 7.59307C13.2873 6.98754 12.6724 6.69919 11.7885 6.69919C9.72282 6.69919 9.51145 8.47733 9.50184 8.55422C9.4442 9.01557 9.03107 9.35198 8.55068 9.30392C8.07991 9.25586 7.74364 8.83295 7.79168 8.36199C7.91658 7.18938 8.90617 4.96912 11.7885 4.96912C13.662 4.96912 14.6323 5.89182 15.1223 6.67036C15.7084 7.60268 15.8429 8.77528 15.4874 9.89022C15.0743 11.1974 14.152 12.0432 12.8645 12.3508V14.6672C12.8549 15.1381 12.4706 15.5226 11.9998 15.5226Z" fill="white"/>
<path d="M11.9998 19.1462C12.6312 19.1462 13.1431 18.6341 13.1431 18.0024C13.1431 17.3707 12.6312 16.8586 11.9998 16.8586C11.3683 16.8586 10.8564 17.3707 10.8564 18.0024C10.8564 18.6341 11.3683 19.1462 11.9998 19.1462Z" fill="white"/>
</svg>
