<svg width="19" height="19" viewBox="0 0 19 19" fill="none" xmlns="http://www.w3.org/2000/svg">
<path d="M17.8524 19H1.14761C0.509253 19 0 18.4795 0 17.8433V17.2432C0 16.5997 0.516426 16.0864 1.14761 16.0864H17.8524C18.4907 16.0864 19 16.607 19 17.2432V17.8433C19 18.4795 18.4836 19 17.8524 19Z" fill="white"/>
<path d="M11.9063 7.25875V0.542237C11.9063 0.238585 11.6337 0 11.3038 0H9.50349H7.70318C7.37325 0 7.10069 0.245814 7.10069 0.542237V7.25875C7.10069 7.45396 6.92855 7.61301 6.71337 7.61301H3.95197C3.74397 7.61301 3.64354 7.83714 3.78699 7.97451L9.11617 12.804C9.33135 12.9992 9.68998 12.9992 9.90515 12.804L15.2343 7.97451C15.3778 7.84437 15.2774 7.61301 15.0694 7.61301H12.308C12.0784 7.61301 11.9063 7.45396 11.9063 7.25875Z" fill="white"/>
</svg>
